<svg width="32" height="32" viewBox="0 0 32 32" fill="none" xmlns="http://www.w3.org/2000/svg">
<path id="Vector" d="M22.7153 0H9.30063C3.47373 0 0 3.472 0 9.296V22.688C0 28.528 3.47373 32 9.30063 32H22.6993C28.5262 32 31.9999 28.528 31.9999 22.704V9.296C32.016 3.472 28.5422 0 22.7153 0ZM25.6128 17.2H17.2086V25.6C17.2086 26.256 16.6643 26.8 16.008 26.8C15.3517 26.8 14.8074 26.256 14.8074 25.6V17.2H6.40319C5.74686 17.2 5.20259 16.656 5.20259 16C5.20259 15.344 5.74686 14.8 6.40319 14.8H14.8074V6.4C14.8074 5.744 15.3517 5.2 16.008 5.2C16.6643 5.2 17.2086 5.744 17.2086 6.4V14.8H25.6128C26.2691 14.8 26.8134 15.344 26.8134 16C26.8134 16.656 26.2691 17.2 25.6128 17.2Z" fill="#1DAE86"/>
</svg>
