<svg width="339" height="70" viewBox="0 0 339 70" fill="none" xmlns="http://www.w3.org/2000/svg">
<g clip-path="url(#clip0_6_13)">
<path d="M52.5576 0.612538C52.5576 0.263535 52.6956 0.0854721 53.0441 0.0854721C54.0823 0.0854721 59.8035 4.28775 59.8035 7.87037C59.8035 11.453 56.4927 22.0442 51.2508 36.745C46.0088 51.4459 37.87 69.7293 35.249 69.7293C33.8695 69.7293 32.9765 68.9387 32.9765 68.9387C32.9765 68.9387 31.597 69.8148 30.4934 69.8148C29.3899 69.8148 26.4277 67.8917 26.4277 66.2251C26.4277 60.1852 30.4935 31.1396 31.7422 26.6738L21.3962 49.9501C16.1543 61.5883 12.6403 69.0242 10.8397 69.0242C9.03913 69.0242 8.63255 68.4971 8.63255 68.4971C8.63255 68.4971 7.31843 68.9316 6.28746 68.9316C5.25649 68.9316 0.00726318 66.3034 0.00726318 61.0541C0.00726318 55.8048 1.66262 45.8262 4.97334 32.1795C8.2768 18.547 12.2046 8.1339 12.2046 6.30342C12.2046 4.47294 12.6185 3.50428 12.9597 3.50428C13.301 3.50428 19.4432 8.75356 19.4432 11.1182C19.4432 13.4829 15.9292 25.4701 12.8944 36.4031C9.85955 47.3362 7.79035 58.8889 7.79035 58.8889C7.79035 58.8889 11.9287 51.5385 19.1746 36.7521C26.4857 21.7877 31.1759 11.6382 31.8003 9.80057C32.4174 7.96296 33.0418 7.69943 34.0801 7.69943C38.4943 7.69943 42.081 11.1111 42.081 16.802C42.081 22.4929 39.322 31.6738 37.5287 40.2493C35.7354 48.8248 34.356 56.9587 34.356 56.9587C34.356 56.9587 39.7359 46.0185 44.426 32.1937C49.1162 18.3689 52.9715 4.55128 52.9715 2.36467C52.9715 1.66667 52.5576 1.05413 52.5576 0.612538Z" fill="#1DAE86"/>
<path d="M53.3127 48.3904C60.21 31.1539 71.1078 6.03993 71.5216 4.03138C72.0081 1.58124 72.0081 0.007164 72.7632 0.007164C73.5182 0.007164 74.07 1.31771 76.5603 2.19377C81.1125 3.76785 83.523 6.04705 83.523 12.7778C83.523 19.0812 77.2428 40.4274 76.6257 64.2308C76.5603 66.8519 75.1082 68.953 73.4529 68.953C71.7975 68.953 68.1456 65.9758 68.1456 63.7892C68.1456 63.2621 68.4215 60.2921 68.9007 56.0898C67.3106 56.1753 64.9002 56.3533 62.3518 56.3533C60.8344 56.3533 59.2444 56.3533 57.7996 56.1753C56.2168 60.7265 54.9027 64.7507 54.213 67.6354C53.9371 68.775 52.9061 69.2949 51.8679 69.2949C50.8297 69.2949 47.8674 65.8832 47.8674 64.2237C47.8674 63.0841 49.2469 58.8889 51.3161 53.4616C50.2779 51.973 49.6607 49.7864 49.6607 48.5613C49.6607 47.9488 50.1472 47.2507 50.4158 47.2507C50.9023 47.2507 51.5194 48.2123 53.3127 48.3904ZM60.7618 48.1268C64.2105 47.9488 67.935 47.6923 69.9389 47.5143C71.3183 36.1396 73.177 21.8804 74.4911 14.7864C71.8701 20.8263 65.7279 35.2636 60.7618 48.1268Z" fill="#5FC1C8"/>
<path d="M108.012 10.584C108.012 14.9573 105.05 36.9231 104.701 49.0812C106.153 43.4829 113.392 19.6795 117.327 6.29629C117.53 5.59829 117.676 4.54416 117.676 3.84615C117.676 3.23362 117.4 2.70655 117.4 2.09401C117.4 1.48148 117.952 1.30342 118.438 1.30342C121.197 1.30342 125.263 5.24216 125.263 10.1424C125.263 15.0427 118.227 28.8675 113.951 41.4672C109.747 53.9815 107.671 67.8917 105.74 67.8917C103.808 67.8917 102.502 66.4886 102.502 66.4886C102.502 66.4886 100.36 66.8376 99.1182 66.8376C98.1526 66.8376 98.0146 64.8219 98.0146 63.0769C98.0146 60.8903 99.3941 24.4017 99.3941 24.4017C99.3941 24.4017 95.9454 33.0627 92.4968 48.198C89.0481 63.3333 88.4963 67.0085 87.4581 67.5356C86.4925 68.0627 86.144 68.4117 85.1856 68.4117C84.1474 68.4117 80.8367 65.9615 80.8367 62.7208C80.8367 59.6581 84.0094 49.245 88.6996 33.9316C93.3898 18.7963 97.942 5.75498 98.0146 2.7849C98.0146 1.55983 98.2905 1.03276 98.7697 1.03276C100.912 1.03276 108.012 5.40598 108.012 10.5698V10.584Z" fill="#1DAE86"/>
<path d="M135.326 2.79915C136.778 2.79915 137.671 2.10114 141.533 2.10114C149.331 2.10114 156.642 10.4131 156.642 21.0897C156.642 38.0627 144.437 69.1239 131.536 69.1239C125.677 69.1239 123.535 63.8746 123.535 63.8746C123.535 63.8746 117.603 63.5256 117.603 59.1524C117.603 53.3761 128.639 18.3761 132.153 6.12536C132.153 6.12536 131.398 4.81482 131.398 3.93875C131.398 3.06268 131.884 2.27921 132.298 2.27921C133.329 2.27921 133.815 2.80627 135.333 2.80627L135.326 2.79915ZM140.016 10.6766C138.15 11.9872 126.011 56.2607 126.011 57.1368C126.011 58.0983 127.252 60.5484 129.597 60.5484C138.912 60.5484 148.155 31.3248 148.155 16.7094C148.155 11.3746 146.158 8.74644 144.154 8.74644C142.913 8.74644 141.882 9.35898 140.016 10.6695V10.6766Z" fill="#1DAE86"/>
<path d="M169.122 4.02422C171.192 4.02422 177.61 2.10114 182.089 2.10114C186.569 2.10114 189.335 5.07835 189.335 8.49003C189.335 10.3276 186.78 11.5527 185.131 11.5527C184.376 11.5527 182.373 11.2037 180.507 11.2037C178.437 11.2037 176.368 11.5527 175.889 13.0413C174.989 15.8405 169.333 37.8917 169.333 37.8917C169.333 37.8917 172.165 37.3647 174.923 37.3647C177.682 37.3647 178.162 41.2179 178.162 41.2179C178.162 41.2179 180.303 42.8775 180.303 44.5442C180.303 46.3818 176.165 46.7308 172.165 47.4288C168.229 48.1268 166.509 47.6068 165.405 50.5769C164.302 53.547 162.443 60.1994 162.37 61.6026C162.37 61.7806 162.508 61.8661 162.784 61.8661C164.302 61.8661 170.923 59.1524 174.234 59.1524C176.376 59.1524 180.1 63.7892 180.1 65.8048C180.1 67.8205 178.786 68.4331 177.544 68.4331C176.303 68.4331 173.682 67.386 171.337 67.386C169.13 67.386 161.746 68.9601 160.025 68.9601C158.305 68.9601 157.956 67.208 157.956 67.208C157.956 67.208 153.956 65.8974 153.956 61.6097C153.956 57.3219 158.159 45.1567 158.159 45.1567C158.159 45.1567 157.608 42.792 157.608 40.5199C157.608 37.7208 159.742 37.7208 159.742 37.7208L167.467 11.7308C167.467 11.7308 165.122 7.35755 165.122 5.60542C165.122 4.64388 165.739 3.41881 166.291 3.41881C167.329 3.41881 167.119 4.03134 169.122 4.03134V4.02422Z" fill="#1DAE86"/>
<path d="M195.26 5.9473C195.811 5.9473 203.747 1.65955 210.368 1.65955C216.024 1.65955 222.094 10.584 222.094 19.245C222.094 34.2094 207.747 42.6068 203.057 44.6225C203.261 44.708 206.506 46.4601 207.334 51.8875C208.161 57.4858 208.372 64.2236 212.438 64.2236C213.817 64.2236 214.855 62.8205 215.4 62.8205C215.886 62.8205 216.3 63.5185 216.3 64.1311C216.3 65.1781 213.055 69.7293 208.989 69.7293C202.23 69.7293 200.16 62.3789 198.984 54.245C198.498 50.7479 198.157 48.4687 196.777 48.4687C196.087 48.4687 195.049 48.5541 194.505 49.9573C193.815 51.7094 190.018 64.1311 189.952 66.9302C189.88 68.7678 188.362 69.8148 187.673 69.8148C187.121 69.8148 182.707 65.7906 182.707 62.9915C182.707 60.1923 187.048 46.7165 187.048 45.4915C187.048 44.3519 186.017 43.2194 186.017 41.5527C186.017 39.8006 186.431 38.6681 187.535 38.6681C188.573 38.6681 188.849 39.1026 189.263 39.1026C189.611 39.1026 196.922 12.9416 196.922 12.9416C196.922 12.9416 193.815 7.42878 193.815 6.11824C193.815 5.8547 193.953 5.68376 194.025 5.68376C194.301 5.68376 194.577 5.9473 195.267 5.9473H195.26ZM206.571 11.8946C205.402 13.3832 197.677 38.2336 197.401 40.2422C203.333 37.5285 216.3 23.9672 216.3 13.7322C216.3 11.2821 214.369 9.87892 212.641 9.87892C210.913 9.87892 207.74 10.406 206.571 11.8946Z" fill="#1DAE86"/>
<path d="M240.165 10.7621C240.165 16.2749 227.198 54.6866 227.198 57.6638C227.198 58.0983 227.408 58.3618 227.888 58.3618C231.75 58.3618 234.988 56.7023 237.617 56.7023C240.245 56.7023 243.759 60.463 243.759 62.1296C243.759 63.7963 241.479 63.7892 235.409 65.8903C230.167 67.7279 229.34 70 227.684 70C226.029 70 221.542 65.3633 221.615 63.3476C220.097 62.3006 218.58 61.4245 218.58 57.8348C218.58 53.7251 221.753 45.7621 227.133 28.5256C232.375 11.6382 232.999 5.95442 233.064 4.28775C233.13 2.62821 233.268 1.83761 234.03 1.83761C235.685 1.83761 240.172 5.33476 240.172 10.7621H240.165Z" fill="#5FC1C8"/>
<path d="M266.789 10.1496C266.789 13.5613 263.616 16.8875 259.681 28.0841C256.573 36.9231 253.749 47.7707 253.749 56.5242C253.749 60.114 254.787 61.4245 255.891 61.4245C257.96 61.4245 263.137 51.2749 269.134 35.2635C275.138 19.2521 277.621 6.47436 277.686 3.93875C277.752 2.01567 278.79 1.1396 280.097 1.1396C282.166 1.1396 285.201 5.34188 285.201 8.75356C285.201 11.9017 281.955 27.1296 275.748 42.3504C270.157 55.9117 262.091 68.5969 257.401 68.5969C250.017 68.5969 245.465 59.6724 245.465 49.3447C245.465 36.4815 255.397 12.5071 256.428 8.83191C257.466 5.24217 258.57 3.66809 259.877 3.66809C262.084 3.66809 266.774 6.73077 266.774 10.1425L266.789 10.1496Z" fill="#1DAE86"/>
<path d="M311.345 11.3746C311.345 18.198 306.59 33.2479 303.344 33.2479C301.137 33.2479 297.899 29.1382 297.899 27.6496C297.899 26.161 298.792 26.161 300.731 21.2607C302.386 16.9729 303.141 13.8248 303.141 12.0727C303.141 10.4986 302.524 9.80057 301.762 9.80057C298.8 9.80057 292.795 21.4387 292.795 30.1852C292.795 37.7991 303.628 44.708 303.628 53.8105C303.628 60.5484 297.696 68.5969 291.83 68.5969C286.929 68.5969 277.897 59.2379 277.897 54.1595C277.897 51.7094 280.032 48.1197 281.411 48.1197C283.48 48.1197 286.58 58.1838 289.071 58.1838C291.692 58.1838 293.761 54.3305 293.761 50.3989C293.761 39.7222 285.208 38.1482 285.208 25.463C285.208 14.9644 293.42 0.527069 298.248 0.527069C299.976 0.527069 302.662 2.45015 302.662 2.45015C308.666 2.45015 311.353 5.86183 311.353 11.3746H311.345Z" fill="#1DAE86"/>
<path d="M318.519 2.79915C325.213 2.79915 327.071 2.18661 329.968 2.18661C335.275 2.18661 339 6.65242 339 10.3205C339 11.9801 338.245 12.6852 336.655 12.6852C335.065 12.6852 328.654 12.7707 328.654 13.3832C328.654 13.9957 329.758 15.3063 329.758 18.1054C329.758 21.1681 325.067 34.9074 321.822 46.6311C318.584 58.2692 316.442 64.2165 316.377 66.3177C316.304 68.4188 315.135 69.0313 314.235 69.0313C312.442 69.0313 309.545 64.2165 309.545 61.1539C309.545 58.0912 312.304 50.3917 315.476 39.2806C318.649 28.255 323.202 15.2208 323.202 13.8177C323.202 12.9416 322.512 12.7707 321.887 12.7707C321.132 12.7707 317.059 12.7707 315.68 11.3675C314.3 9.96439 312.442 4.01709 312.442 1.91595C312.442 1.48148 312.58 1.21795 312.856 1.21795C313.204 1.21795 314.17 2.79202 318.511 2.79202L318.519 2.79915Z" fill="#1DAE86"/>
</g>
<defs>
<clipPath id="clip0_6_13">
<rect width="339" height="70" fill="white"/>
</clipPath>
</defs>
</svg>
